#!OML:ASF F:\VICON\USERDATA\INSTALL\rory3\rory3.ASF
:FULLY-SPECIFIED
:DEGREES
1
root 0.17634199501692105 17.433293812897578 -33.39442414743771 5.373851982173955 -3.3581528680746207 0.7307045614766337
lfemur 0.4693397759664961 0.9485623750294943 -26.751789306290206
ltibia 78.21160461462588
lfoot 27.794877353177718 -21.65279368622958
ltoes 8.07459716612848
rfemur -40.529177686459654 6.072354500278042 27.89216500311065
rtibia 42.81635573808822
rfoot -8.963760866960797 -1.9199039779088314
rtoes 3.0326942599274123
lowerback 18.16346119403155 -1.3051561392029831 -1.5977698330620242
upperback -0.6709144829204042 -1.8504096357892028 2.1590028120183584
thorax -10.899216165453439 -0.7363227452924758 3.285491651480181
lowerneck -18.88424896159124 -2.936865842508962 -2.390749907756872
upperneck 16.44264945664839 -3.6873300641493727 1.2035620812687622
head 8.213905944450023 -1.7696652471572372 0.2652497410470837
lclavicle -1.9521771681533313e-15 1.1013516249803873e-15
lhumerus -45.426955046620776 -16.156688287164194 100.57923930629934
lradius 110.25455984039957
lwrist 43.33932565505904
lhand -15.912284014018814 7.223305830378507
lfingers 7.125020000000001
lthumb 10.28495907010897 37.01211080332415
rclavicle -1.9521771681533313e-15 1.1013516249803873e-15
rhumerus -56.212380859769645 13.885768708133023 -99.04700336124321
rradius 98.31577237288913
rwrist -8.84434702158305
rhand -40.68884633398288 128.78395834863858
rfingers 7.125020000000001
rthumb -13.610304633713742 35.84753306723853
2
root 0.15615479359001166 17.277677666178477 -32.48783836619865 5.147173806255259 -3.12197652506993 -0.9398540214185765
lfemur -4.781721384419033 1.932680792739031 -22.455974786779443
ltibia 85.87679204475967
lfoot 27.903529863946797 -20.149048598351207
ltoes 5.617679454930354
rfemur -39.05829346645172 9.117071604327942 29.75290941732234
rtibia 47.209638982463105
rfoot -12.978600029553984 -6.643963843464837
rtoes 2.5547728931274563
lowerback 18.920117130303275 -1.327093129885873 -0.46553217899788435
upperback -0.4624438145429646 -1.6252548623795182 2.4462966916495104
thorax -11.103744787680332 -0.6761550485169101 2.9975441567638432
lowerneck -19.196415847063463 -2.938946213312853 -2.5449245326250285
upperneck 16.859168380290658 -3.707780769962468 1.5273227470390587
head 8.377712308854846 -1.7531416830924096 0.381120097554428
lclavicle -1.952177105981891e-15 1.1013515654602889e-15
lhumerus -46.06748790099036 -14.135614407748392 100.48710044258186
lradius 107.88997842514503
lwrist 43.50351141219835
lhand -16.555296878337746 6.850935371577424
lfingers 7.125020000000001
lthumb 9.664475417302507 36.65096562567404
rclavicle -1.952177105981891e-15 1.1013515654602889e-15
rhumerus -52.47618958656172 15.330560967999952 -100.23224187810771
rradius 97.61116238853893
rwrist -13.62485916567258
rhand -35.86813684950349 70.75497362969304
rfingers 7.125020000000001
rthumb -8.964838650479937 31.333125300911348
3
root 0.14238458512239716 17.12753352461853 -31.606079923427444 5.308553610923521 -1.9532842788962086 -3.56793870139709
lfemur -11.298662337107924 2.596199013781191 -17.024340919884718
ltibia 92.77398531336954
lfoot 26.587155811572163 -20.85005250186797
ltoes 8.554982505011527
rfemur -36.73817767362776 10.572396230421733 33.11571939822511
rtibia 49.83496085024428
rfoot -16.98138642803122 -10.122004605762895
rtoes 0.9491284754413358
lowerback 19.063119236708733 -1.4563460788883966 1.8457472043451608
upperback 0.10120120923561071 -1.314638440095561 2.9146097506200572
thorax -10.52630761819231 -0.6325530240798762 2.2838600069899115
lowerneck -21.149587878348193 -3.2683441590231226 -2.7291110217490386
upperneck 17.9893706762568 -4.16932225863061 2.0023497061229114
head 8.996194755824519 -1.9058318941213725 0.4978246806998301
lclavicle -1.952177217766942e-15 1.101351662503977e-15
lhumerus -45.89089537167727 -12.578776049201581 100.32087651629519
lradius 105.65825606391252
lwrist 43.58059098520649
lhand -16.722874599145666 7.133031847779207
lfingers 7.125020000000001
lthumb 9.502699977551043 36.938705399137284
rclavicle -1.952177217766942e-15 1.101351662503977e-15
rhumerus -47.58873900719341 16.491847384339685 -100.90196268828564
rradius 97.4319665882481
rwrist -16.63741611879604
rhand -35.49546354771086 38.52582119624968
rfingers 7.125020000000001
rthumb -8.605511063402883 28.77431561586362
4
root 0.12776075955214022 17.038157440352354 -30.71869653678462 5.520430397364841 -0.9508404510715203 -4.095313803786052
lfemur -19.102178477190936 3.277149135521348 -14.416513788703666
ltibia 98.1353843929463
lfoot 26.154667167262648 -19.869365627404008
ltoes 15.424180559533283
rfemur -33.84008708917111 11.020092063804917 34.325020534425406
rtibia 51.29203635345326
rfoot -19.719657323276266 -12.819319557320249
rtoes -3.396301395644195
lowerback 19.56169097766298 -1.4460243720657309 2.017120461015911
upperback 0.07101150483302321 -1.2176216775605788 3.1514886311928354
thorax -10.84999741813574 -0.586381532192907 2.432109127231004
lowerneck -21.68463280191866 -3.420706975643282 -2.5589442844887764
upperneck 18.024707119237284 -4.3610499142033365 1.7622516917158852
head 9.084973983995926 -2.0051904556941267 0.3772064417215709
lclavicle -1.9521771584776403e-15 1.1013516262743053e-15
lhumerus -47.09539871503166 -10.530246299509097 100.35292201333338
lradius 104.02130198240476
lwrist 41.317584854742876
lhand -17.036577009427724 7.981513977770685
lfingers 7.125020000000001
lthumb 9.1999775896365 37.799807255944714
rclavicle -1.9521771584776403e-15 1.1013516262743053e-15
rhumerus -43.15799529980957 17.996446184328285 -101.29636388113516
rradius 97.737204329081
rwrist -19.206623998612155
rhand -35.19011187462911 12.988211937928611
rfingers 7.125020000000001
rthumb -8.311324910190402 26.74709099626766
5
root 0.12667355508069428 16.96318136966289 -29.841787183558004 5.91068944664563 -0.04687073334477332 -3.7944553730289567
lfemur -26.18444978503687 3.936457441945475 -13.285207776582624
ltibia 101.80839994806038
lfoot 22.574299456704868 -19.289387485487165
ltoes 18.384256375141277
rfemur -30.721985524360463 10.557353479114681 34.56883861563663
rtibia 51.69637813311842
rfoot -22.378096954984706 -14.46479503539926
rtoes -5.256970052959761
lowerback 19.3485368945303 -1.4843319357483555 1.719792838697845
upperback -0.2709703834922048 -1.3190519145984136 3.1935060355452443
thorax -11.149077844420322 -0.6163849598459629 2.646484014728074
lowerneck -20.957246970132182 -3.4527889492317683 -2.7111785330533573
upperneck 17.96286834402144 -4.369169778149711 1.6435902997774638
head 8.959467470837483 -2.0329925824730073 0.36158350791105354
lclavicle -1.952177159712835e-15 1.1013516405073383e-15
lhumerus -49.731543958686224 -8.519641856341668 100.32519653299853
lradius 103.61326649467767
lwrist 39.0354028305065
lhand -16.654212052751006 7.722044313744953
lfingers 7.125020000000001
lthumb 9.568991706711223 37.53143835303078
rclavicle -1.952177159712835e-15 1.1013516405073383e-15
rhumerus -40.33630258499337 18.855472035314673 -101.5228449788827
rradius 99.6133163090877
rwrist -21.2829083178329
rhand -30.273829720819048 -19.668266910180954
rfingers 7.125020000000001
rthumb -3.5748348699681403 24.310240011596697
6
root 0.1258204315809336 17.012621416276296 -28.929576458447343 6.200794553765899 0.8348951992510958 -4.120489250225821
lfemur -32.80296547863691 4.653726996576676 -12.090604989432887
ltibia 103.32846928191589
lfoot 18.510806235613295 -18.80935014826641
ltoes 8.404997315227316
rfemur -26.01721017690847 9.719927261157014 35.46618835242853
rtibia 50.257936767885965
rfoot -24.526221578095324 -14.784682309570151
rtoes -4.330593752955426
lowerback 18.944048573869072 -1.6176780085272122 1.7126721262143043
upperback -0.7548636748949563 -1.4509901932808729 3.649271753827783
thorax -11.515627988917913 -0.6592057542885039 3.153095342436731
lowerneck -19.098783051524475 -3.534994580231409 -3.475121742024232
upperneck 17.111316456132766 -4.357928297962392 1.5854240645716522
head 8.457842422599846 -2.0766003820703807 0.4508211988043945
lclavicle -1.952177172888237e-15 1.1013516282151822e-15
lhumerus -53.3598142783313 -6.457102572841324 100.62540545494994
lradius 104.41241204526474
lwrist 37.483032763386284
lhand -15.840859550416514 8.749068320432832
lfingers 7.125020000000001
lthumb 10.353850349066773 38.549154090352275
rclavicle -1.952177172888237e-15 1.1013516282151822e-15
rhumerus -38.858785341186135 20.062196855372648 -102.04145277708598
rradius 102.50237602601248
rwrist -23.70863231574225
rhand -31.20851840515389 -36.46510859577381
rfingers 7.125020000000001
rthumb -4.475208252126537 22.93539764639705
7
root 0.14346346620765327 17.101325499908903 -27.952290951649545 6.54404430500107 0.46325638440037054 -4.497460075766645
lfemur -37.83471962282684 6.082950196702735 -11.927244269184975
ltibia 102.7033577550941
lfoot 12.611288498926823 -17.99601920976479
ltoes -3.4539581702091606
rfemur -20.386442668900195 9.55275464983464 36.05354454378323
rtibia 47.38856473589121
rfoot -23.853901804863387 -14.559955781865384
rtoes -7.454678540816697
lowerback 17.86208924049944 -0.843955561099089 2.6298155653937823
upperback -0.6460887255094192 -0.28821616041628806 3.309777405235815
thorax -10.801485160013986 -0.17445354171927535 2.068426455731359
lowerneck -19.703160162940247 -4.121818494479099 -2.890450112968857
upperneck 17.05342483678177 -5.279775444822051 1.6067008319697607
head 8.549908314253287 -2.468406981496355 0.2953001214916437
lclavicle -1.9521771656829376e-15 1.1013516023368708e-15
lhumerus -55.73473425312824 -7.515290030267532 100.66925040059577
lradius 105.53397034601599
lwrist 38.78085224062105
lhand -15.015560150393139 9.175828659361574
lfingers 7.125020000000001
lthumb 11.150191941022205 38.955471824425075
rclavicle -1.9521771656829376e-15 1.1013516023368708e-15
rhumerus -36.834340825901016 19.060069000690756 -102.16550864626817
rradius 105.73243703378604
rwrist -28.83374760317524
rhand -23.32647807223895 -21.290164893120526
rfingers 7.125020000000001
rthumb 3.116797929752721 24.496469011219624
